<svg xmlns="http://www.w3.org/2000/svg" viewBox="0 0 64 64">
  <defs>
    <linearGradient id="mg" x1="70.397" y1="134.015" x2="70.397" y2="-7.48128" gradientUnits="userSpaceOnUse">
      <stop stop-color="#2DBDB6"/>
      <stop offset="0.27" stop-color="#2DBDB6"/>
      <stop offset="1" stop-color="#9ACF87"/>
    </linearGradient>
  </defs>
  <rect width="64" height="64" rx="12" fill="#0f172a"/>
  <g transform="translate(4, 4) scale(0.269)">
    <path fill-rule="evenodd" clip-rule="evenodd" d="M140.835 111.61C140.835 120.566 133.632 127.796 124.709 127.796C115.786 127.796 108.583 120.566 108.583 111.61C108.583 91.7558 108.583 72.0091 108.583 52.2625C111.27 52.2625 113.958 52.2625 116.646 52.2625C118.581 52.2625 119.548 50.536 118.151 49.0253C111.915 41.6878 105.572 34.4581 99.337 27.1206C97.7244 24.9625 97.1869 25.3941 95.6818 27.1206C89.4463 34.4581 83.1034 41.6878 76.8679 49.0253C75.4704 50.6439 76.4379 52.2625 78.3731 52.2625C81.0607 52.2625 83.7484 52.2625 86.4361 52.2625C86.4361 72.117 86.5436 91.7558 86.5436 111.61C86.5436 120.566 79.3406 127.796 70.4175 127.796C61.4944 127.796 54.2913 120.566 54.2913 111.61C54.2913 97.6906 54.3989 83.8787 54.3989 70.0668C57.0865 70.0668 59.7742 70.0668 62.4619 70.0668C64.3971 70.0668 65.3646 68.3404 63.967 66.8297C57.7316 59.4921 51.3886 52.2625 45.1532 44.9249C43.5406 42.7668 43.003 43.1984 41.4979 44.9249C35.2625 52.2625 28.9195 59.4921 22.6841 66.8297C21.2865 68.4483 22.2541 70.0668 24.1892 70.0668C26.8769 70.0668 29.5646 70.0668 32.2523 70.0668V111.61C32.2523 120.566 25.0493 127.796 16.1261 127.796C7.20301 127.796 0 120.566 0 111.61V48.3779C0 36.5083 4.83784 25.6099 12.6859 17.7328C20.534 9.85572 31.3922 5 43.3256 5C53.6463 5 63.107 8.66878 70.525 14.7115C77.943 8.66878 87.4037 5 97.7244 5C109.658 5 120.516 9.85572 128.364 17.7328C136.212 25.6099 141.05 36.5083 141.05 48.3779V111.61H140.835Z" fill="url(#mg)"/>
  </g>
  <rect x="36" y="36" width="24" height="18" rx="3" fill="none" stroke="#2DBDB6" stroke-width="1.5"/>
  <rect x="38" y="38" width="20" height="12" rx="1" fill="#2DBDB6" opacity="0.15"/>
  <line x1="40" y1="42" x2="56" y2="42" stroke="#2DBDB6" stroke-width="1.2" stroke-linecap="round"/>
  <line x1="40" y1="46" x2="53" y2="46" stroke="#2DBDB6" stroke-width="1.2" stroke-linecap="round"/>
  <line x1="40" y1="50" x2="54" y2="50" stroke="#2DBDB6" stroke-width="1.2" stroke-linecap="round"/>
  <line x1="48" y1="54" x2="48" y2="58" stroke="#2DBDB6" stroke-width="1.5" stroke-linecap="round"/>
  <line x1="43" y1="58" x2="53" y2="58" stroke="#2DBDB6" stroke-width="1.5" stroke-linecap="round"/>
</svg>
